<svg xmlns="http://www.w3.org/2000/svg" version="1.1" xmlns:xlink="http://www.w3.org/1999/xlink" xmlns:svgjs="http://svgjs.dev/svgjs" width="1440" height="560" preserveAspectRatio="none" viewBox="0 0 1440 560"><g mask="url(&quot;#SvgjsMask1041&quot;)" fill="none"><path d="M0 0L260.76 0L0 83.99z" fill="rgba(255, 255, 255, .1)"></path><path d="M0 83.99L260.76 0L342.98 0L0 268.9z" fill="rgba(255, 255, 255, .075)"></path><path d="M0 268.9L342.98 0L468.29 0L0 424.74z" fill="rgba(255, 255, 255, .05)"></path><path d="M0 424.74L468.29 0L802.05 0L0 449.89z" fill="rgba(255, 255, 255, .025)"></path><path d="M1440 560L862.02 560L1440 484.18z" fill="rgba(0, 0, 0, .1)"></path><path d="M1440 484.18L862.02 560L546.42 560L1440 363.99z" fill="rgba(0, 0, 0, .075)"></path><path d="M1440 363.99L546.42 560L214.51999999999998 560L1440 239.54000000000002z" fill="rgba(0, 0, 0, .05)"></path><path d="M1440 239.54000000000002L214.51999999999998 560L108.75999999999998 560L1440 72.92000000000002z" fill="rgba(0, 0, 0, .025)"></path></g><defs><mask id="SvgjsMask1041"><rect width="1440" height="560" fill="#ffffff"></rect></mask></defs></svg>